# xmcd
# 
# Track frame offsets:
#     150
#     52748
#     89129
#     122803
#     163087
#     215178
# 
# Disc length: 3891
# 
# Revision: 1
# Processed by: cddbd v1.5.2PL0 Copyright (c) Steve Scherf et al.
# Submitted via: fre:ac v1.0.17
# 
DISCID=560f3106
DTITLE=Dead and Company - 2015.11.06 Washington DC
DYEAR=2015
DGENRE=
TTITLE0=Truckin'
TTITLE1=Big Boss Man
TTITLE2=Brown Eyed Women
TTITLE3=west LA Fadeaway
TTITLE4=Loser
TTITLE5=Lost Sailor~St Of circumstance
EXTD=\nDead and Company\n06 November 2015 (Friday]\nVerizon Center\nWashington, D.C.\n\nSource: DPA 4023 (NOS) > Sound Devices 744 (24/48]\nLocation: FOB, just right of center at rear of GA pit.\nTransfer: Sound Devices 744 > iMac. Tracked via Sound
EXTD=Studio, FLAC via xACT
EXTT0=
EXTT1=
EXTT2=
EXTT3=
EXTT4=
EXTT5=
PLAYORDER=
